<svg width="22" height="22" viewBox="0 0 22 22" fill="none" xmlns="http://www.w3.org/2000/svg">
<path d="M18.0682 0.998534L3.92761 1.00147C2.31232 1.0018 0.998197 2.31647 0.998533 3.93176L1.00147 18.0724C1.0018 19.6877 2.31647 21.0018 3.93176 21.0015L9.8302 21.0002L9.82873 13.9299L7.48498 13.9304L7.48425 10.4148L9.828 10.4143L9.82751 8.03149C9.82711 6.09286 11.4038 4.51554 13.3424 4.51514L16.8971 4.5144L16.8978 8.03003L13.3431 8.03076L13.3436 10.4136L16.8983 10.4128L16.3131 13.9286L13.3444 13.9292L13.3458 20.9995L18.0724 20.9985C19.6877 20.9982 21.0018 19.6835 21.0015 18.0682L20.9985 3.92761C20.9982 2.31232 19.6835 0.998199 18.0682 0.998534Z" fill="black"/>
</svg>
