<svg width="21" height="20" viewBox="0 0 21 20" fill="none" xmlns="http://www.w3.org/2000/svg">
<path d="M10.4764 0.499542C4.95143 0.513267 0.487276 4.88604 0.500639 10.2654C0.511333 14.5701 3.38539 18.2134 7.36108 19.4905C7.8613 19.581 8.04389 19.279 8.04324 19.0205C8.04267 18.7892 8.03281 18.1762 8.02663 17.3642C5.24643 17.9585 4.65506 16.0657 4.65506 16.0657C4.19727 14.9426 3.53902 14.6435 3.53902 14.6435C2.63169 14.0419 3.60755 14.0519 3.60755 14.0519C4.61189 14.1171 5.14171 15.0518 5.14171 15.0518C6.03707 16.5389 7.48517 16.105 8.05621 15.8549C8.14465 15.2244 8.40108 14.795 8.68631 14.5506C6.46488 14.3124 4.12864 13.4806 4.11937 9.7484C4.11672 8.68524 4.50206 7.81525 5.14204 7.13215C5.02892 6.88626 4.68897 5.89664 5.22313 4.55376C5.22313 4.55376 6.05998 4.29064 7.9756 5.54565C8.77506 5.32723 9.62479 5.21773 10.4748 5.21066C11.3248 5.21351 12.1751 5.31879 12.9756 5.53323C14.8725 4.26875 15.7106 4.52771 15.7106 4.52771C16.2514 5.86791 15.9164 6.85921 15.817 7.10563C16.4562 7.78556 16.8459 8.65362 16.8485 9.71678C16.8578 13.4589 14.5223 14.2883 12.2979 14.5334C12.6487 14.8249 12.9752 15.4214 12.9774 16.3342C12.9807 17.6377 12.9708 18.6852 12.9715 19.0016C12.9722 19.2569 13.1479 19.5612 13.6602 19.4625C17.6578 18.1738 20.5113 14.5138 20.5006 10.2157C20.4872 4.83636 15.9989 0.485823 10.4764 0.499542Z" fill="#212121"/>
</svg>
