<svg width="22" height="22" viewBox="0 0 22 22" fill="none" xmlns="http://www.w3.org/2000/svg">
<path d="M14.8434 1.03553L7.34375 0.965332C3.89265 0.933027 1.06783 3.70546 1.03552 7.15656L0.96532 14.6562C0.933015 18.1073 3.70545 20.9322 7.15654 20.9645L14.6562 21.0347C18.1073 21.067 20.9321 18.2945 20.9644 14.8434L21.0346 7.34376C21.067 3.89266 18.2945 1.06784 14.8434 1.03553ZM19.0895 14.8259C19.0669 17.2383 17.0862 19.1823 14.6738 19.1597L7.17409 19.0895C4.7617 19.067 2.81766 17.0862 2.84024 14.6738L2.91044 7.17411C2.93302 4.76171 4.91381 2.81767 7.3262 2.84025L14.8259 2.91045C17.2383 2.93303 19.1823 4.91382 19.1597 7.32621L19.0895 14.8259Z" fill="black"/>
<path d="M11.0468 6.00021C8.28565 5.97437 6.02604 8.19206 6.0002 10.9532C5.97435 13.7143 8.19205 15.9739 10.9532 15.9998C13.7143 16.0256 15.9739 13.8079 15.9998 11.0468C16.0256 8.28567 13.8079 6.02606 11.0468 6.00021ZM10.9707 14.1249C9.2483 14.1087 7.85899 12.6932 7.87511 10.9707C7.89125 9.24707 9.3068 7.85901 11.0292 7.87513C12.7517 7.89126 14.141 9.30557 14.1248 11.0292C14.1087 12.7517 12.6931 14.141 10.9707 14.1249Z" fill="black"/>
<path d="M16.4188 6.34175C16.7868 6.34519 17.0878 6.04971 17.0913 5.68177C17.0947 5.31382 16.7992 5.01276 16.4313 5.00931C16.0634 5.00587 15.7623 5.30135 15.7588 5.66929C15.7554 6.03724 16.0509 6.3383 16.4188 6.34175Z" fill="black"/>
</svg>
